<svg xmlns="http://www.w3.org/2000/svg" width="1024" height="1024" viewBox="0 0 1024 1024" version="1.1"><path d="M 563.335 357.352 C 561.730 358.250, 558.948 364.040, 559.074 366.218 C 559.115 366.923, 559.926 365.739, 560.876 363.588 C 561.826 361.436, 563.480 359.443, 564.552 359.159 C 568.646 358.073, 600.187 357.888, 599.529 358.954 C 599.173 359.529, 599.696 360.036, 600.691 360.079 C 601.740 360.125, 601.975 360.370, 601.250 360.662 C 600.563 360.940, 600 361.606, 600 362.142 C 600 362.679, 600.450 362.840, 601 362.500 C 601.550 362.160, 602 362.610, 602 363.500 C 602 364.390, 601.555 364.843, 601.011 364.507 C 600.444 364.157, 600.277 364.559, 600.619 365.450 C 600.947 366.305, 600.473 368.859, 599.566 371.127 C 598.659 373.394, 598.150 375.483, 598.435 375.768 C 598.720 376.053, 599.181 375.659, 599.460 374.893 C 603.483 363.835, 603.944 360.028, 601.505 358.004 C 599.748 356.546, 565.811 355.966, 563.335 357.352 M 555.281 376.500 C 553.646 381.175, 552.607 385, 552.972 385 C 553.336 385, 554.418 382.515, 555.376 379.477 C 556.333 376.439, 557.428 374.144, 557.808 374.376 C 558.189 374.608, 558.581 373.268, 558.679 371.399 C 558.777 369.530, 558.722 368, 558.556 368 C 558.390 368, 556.916 371.825, 555.281 376.500 M 545.996 403.730 C 544.183 409.103, 542.470 414.175, 542.190 415 C 541.910 415.825, 541.976 416.240, 542.335 415.922 C 543.253 415.111, 550.163 394.830, 549.685 394.351 C 549.469 394.136, 547.809 398.356, 545.996 403.730 M 589.468 400.461 C 587.996 404.794, 587.337 405.695, 586.282 404.819 C 585.550 404.212, 584.663 404.004, 584.309 404.357 C 583.956 404.711, 584.218 405, 584.892 405 C 585.566 405, 585.797 405.520, 585.405 406.155 C 584.983 406.837, 585.128 407.039, 585.760 406.648 C 586.348 406.285, 587.029 406.553, 587.274 407.244 C 587.519 407.935, 588.303 406.587, 589.018 404.250 C 589.732 401.913, 590.597 400, 590.940 400 C 591.283 400, 591.657 398.875, 591.771 397.500 C 592.084 393.715, 591.511 394.452, 589.468 400.461 M 584.524 414.925 C 584.162 416.066, 583.460 417, 582.964 417 C 582.468 417, 582.302 417.622, 582.594 418.383 C 582.886 419.144, 582.421 421.449, 581.562 423.505 C 579.724 427.906, 579.623 429, 581.059 429 C 581.641 429, 581.846 428.559, 581.513 428.021 C 581.180 427.482, 581.470 426.020, 582.158 424.771 C 582.846 423.522, 583.568 421.410, 583.762 420.077 C 583.956 418.744, 584.575 416.793, 585.138 415.741 C 585.701 414.689, 585.942 413.608, 585.672 413.339 C 585.403 413.070, 584.886 413.783, 584.524 414.925 M 409 417.724 C 408.175 418.036, 401.200 422.117, 393.500 426.793 C 385.800 431.469, 374.775 438.087, 369 441.499 C 363.225 444.911, 356.250 449.081, 353.500 450.767 C 350.750 452.452, 345.012 455.900, 340.750 458.429 C 336.488 460.958, 333 463.257, 333 463.539 C 333 464.250, 337.204 462, 345.900 456.633 C 349.970 454.122, 353.795 452.349, 354.400 452.694 C 355.005 453.039, 355.164 452.950, 354.754 452.497 C 353.994 451.660, 359.331 447.921, 361.804 447.558 C 362.550 447.449, 363.524 446.771, 363.968 446.052 C 364.413 445.332, 365.284 445.058, 365.905 445.441 C 366.525 445.824, 366.731 446.627, 366.362 447.224 C 365.945 447.899, 366.160 448.019, 366.933 447.542 C 367.835 446.984, 367.874 446.474, 367.075 445.675 C 365.499 444.099, 375.105 438.177, 378.613 438.562 C 380.530 438.772, 380.951 438.551, 380.153 437.753 C 379.355 436.955, 380.571 435.741, 384.600 433.313 C 387.650 431.476, 390.676 430.276, 391.323 430.646 C 391.970 431.017, 392.174 430.960, 391.776 430.520 C 390.792 429.431, 399.849 423.788, 401.219 424.635 C 401.819 425.006, 402.034 424.864, 401.698 424.321 C 401.346 423.751, 402.419 423.333, 404.238 423.333 C 405.971 423.333, 407.583 422.752, 407.819 422.042 C 408.056 421.331, 409.094 419.906, 410.125 418.875 C 412.020 416.980, 411.737 416.691, 409 417.724 M 414.271 419.092 C 415.245 419.659, 415.813 420.494, 415.532 420.948 C 415.252 421.402, 415.692 422.329, 416.511 423.009 C 417.634 423.941, 418 423.953, 418 423.057 C 418 420.770, 415.914 418, 414.215 418.030 C 412.630 418.059, 412.634 418.139, 414.271 419.092 M 617 419.461 C 617 419.681, 620.263 421.717, 624.250 423.987 C 636.905 431.191, 642.013 434.651, 641.246 435.498 C 640.836 435.950, 641.028 436.018, 641.673 435.649 C 642.319 435.279, 644.456 435.927, 646.423 437.087 C 648.390 438.248, 650 438.961, 650 438.672 C 650 438.383, 647.413 436.684, 644.250 434.897 C 641.087 433.109, 635.937 429.926, 632.805 427.824 C 629.673 425.721, 626.817 424, 626.459 424 C 626.101 424, 624.614 423.173, 623.154 422.163 C 620.405 420.259, 617 418.765, 617 419.461 M 416.558 438.528 C 416.591 443.710, 416.928 448.261, 417.308 448.642 C 418.054 449.387, 418.252 445.970, 418.011 436.500 C 417.760 426.597, 416.495 428.362, 416.558 438.528 M 534.036 438.616 C 532.860 442.255, 532.125 445.458, 532.401 445.734 C 532.677 446.010, 533.198 445.061, 533.558 443.625 C 533.918 442.189, 534.573 441.236, 535.013 441.508 C 535.453 441.780, 535.585 441.128, 535.305 440.058 C 535.025 438.989, 535.483 436.738, 536.322 435.057 C 537.160 433.376, 537.470 432, 537.010 432 C 536.550 432, 535.212 434.977, 534.036 438.616 M 651 439.323 C 651 439.591, 656.063 442.845, 662.250 446.554 C 675.593 454.552, 675 454.219, 675 453.727 C 675 453.307, 667.837 448.677, 661.750 445.164 C 659.688 443.974, 656.425 442.063, 654.500 440.918 C 652.575 439.774, 651 439.056, 651 439.323 M 529.538 451.538 C 528.576 454.059, 528.010 456.344, 528.282 456.615 C 528.553 456.886, 529.499 454.983, 530.385 452.385 C 532.475 446.249, 531.812 445.585, 529.538 451.538 M 416.515 453.067 C 417.276 456.532, 415.469 459.189, 410.659 461.676 C 409.095 462.485, 408.055 463.388, 408.349 463.683 C 408.974 464.307, 414.937 460.283, 416.718 458.037 C 418.233 456.126, 418.387 450, 416.921 450 C 416.236 450, 416.088 451.122, 416.515 453.067 M 681.500 458.046 C 683.150 459.165, 687.353 461.698, 690.839 463.676 C 695.008 466.041, 696.753 467.535, 695.936 468.040 C 695.188 468.502, 695.749 468.746, 697.346 468.654 C 698.805 468.569, 699.999 468.431, 699.999 468.348 C 700.001 467.984, 679.775 456.001, 679.170 456.007 C 678.802 456.010, 679.850 456.928, 681.500 458.046 M 566.575 466.954 C 563.656 475.971, 563.651 476, 564.969 476 C 565.501 476, 565.678 475.325, 565.362 474.500 C 565.045 473.675, 565.284 473, 565.893 473 C 566.502 473, 566.924 472.663, 566.832 472.250 C 566.514 470.835, 568.222 464, 568.893 464 C 569.262 464, 569.657 462.875, 569.771 461.500 C 570.126 457.207, 569.242 458.716, 566.575 466.954 M 324.993 467.802 C 321.964 469.836, 318.139 472.175, 316.493 473 C 314.847 473.825, 313.050 474.874, 312.500 475.331 C 311.950 475.787, 307.716 478.487, 303.091 481.331 C 298.466 484.174, 293.874 487.625, 292.886 489 C 290.813 491.886, 289.378 497, 290.642 496.999 C 291.114 496.999, 291.565 495.867, 291.645 494.484 C 291.725 493.101, 292.519 490.857, 293.410 489.497 C 295.213 486.746, 302.357 482.690, 303.460 483.793 C 303.848 484.182, 304.017 483.958, 303.833 483.295 C 303.433 481.846, 321.747 470.628, 324.272 470.776 C 325.246 470.832, 325.806 470.495, 325.515 470.025 C 325.225 469.555, 326.565 468.196, 328.494 467.004 C 330.422 465.812, 332 464.649, 332 464.418 C 332 463.441, 330.175 464.322, 324.993 467.802 M 388.750 475.130 C 386.137 476.839, 384 478.703, 384 479.273 C 384 479.843, 384.823 479.565, 385.829 478.655 C 386.835 477.745, 387.936 477, 388.277 477 C 388.618 477, 390.111 475.875, 391.595 474.500 C 395.129 471.224, 394.513 471.361, 388.750 475.130 M 631.718 474.709 C 631.989 475.413, 632.612 475.740, 633.105 475.435 C 633.597 475.131, 634 475.359, 634 475.941 C 634 476.523, 634.675 477, 635.500 477 C 636.325 477, 637 477.477, 637 478.059 C 637 478.641, 637.450 478.840, 638 478.500 C 638.550 478.160, 639 478.359, 639 478.941 C 639 479.523, 639.675 480, 640.500 480 C 641.325 480, 642 480.450, 642 481 C 642 481.550, 642.788 481.988, 643.750 481.974 C 644.734 481.960, 643.094 480.404, 640 478.418 C 636.975 476.476, 634.580 474.559, 634.679 474.158 C 634.777 473.757, 634.040 473.429, 633.042 473.429 C 631.978 473.429, 631.431 473.958, 631.718 474.709 M 712.500 476.487 C 714.762 478.375, 723.044 482.752, 721.500 481.243 C 720.950 480.706, 718.250 479.040, 715.500 477.542 C 712.750 476.044, 711.400 475.569, 712.500 476.487 M 727.362 486.352 C 732.178 490.969, 732.218 491.060, 731.519 495.757 C 731.131 498.366, 731.161 500.157, 731.586 499.738 C 732.011 499.318, 732.508 497.293, 732.691 495.238 C 733.104 490.600, 730.539 486.210, 725.888 483.595 C 722.833 481.877, 722.978 482.149, 727.362 486.352 M 371.098 485.214 C 370.234 486.598, 370.288 487, 371.337 487 C 372.081 487, 373.417 486.196, 374.306 485.214 C 375.802 483.561, 375.785 483.429, 374.068 483.429 C 373.048 483.429, 371.712 484.232, 371.098 485.214 M 650.360 486.226 C 650.089 486.665, 651.240 487.298, 652.917 487.633 C 654.655 487.981, 655.693 488.688, 655.329 489.276 C 654.978 489.844, 655.142 490.030, 655.694 489.689 C 656.246 489.348, 657.617 489.927, 658.742 490.974 C 659.867 492.022, 661.060 492.607, 661.394 492.273 C 661.727 491.940, 662 492.192, 662 492.833 C 662 493.475, 662.788 493.986, 663.750 493.968 C 665.401 493.938, 665.403 493.868, 663.778 492.718 C 662.831 492.048, 660.265 490.410, 658.075 489.079 C 655.885 487.747, 654.265 486.381, 654.473 486.043 C 654.682 485.705, 653.953 485.429, 652.853 485.429 C 651.753 485.429, 650.631 485.787, 650.360 486.226 M 352.221 497.558 C 350.997 498.415, 349.478 498.795, 348.844 498.403 C 348.208 498.010, 347.960 498.126, 348.291 498.662 C 348.621 499.196, 347.566 500.416, 345.946 501.373 C 342.908 503.167, 341.836 505.384, 344.500 504.362 C 345.325 504.045, 346 503.384, 346 502.893 C 346 502.402, 346.605 502, 347.345 502 C 348.085 502, 349.495 501.111, 350.479 500.024 C 351.462 498.937, 352.610 498.259, 353.029 498.518 C 353.448 498.777, 354.048 498.316, 354.364 497.494 C 355.077 495.635, 354.961 495.639, 352.221 497.558 M 669.636 497.494 C 669.952 498.316, 670.552 498.777, 670.971 498.518 C 671.390 498.259, 672.538 498.937, 673.521 500.024 C 674.505 501.111, 675.815 502, 676.433 502 C 677.872 502, 681.306 505.905, 682.150 508.500 C 682.758 510.369, 682.807 510.353, 682.900 508.259 C 683.002 505.980, 677.388 499.642, 676.018 500.489 C 675.618 500.736, 674.247 499.827, 672.971 498.469 C 670.371 495.701, 668.768 495.233, 669.636 497.494 M 512.034 502.638 C 510.874 505.738, 510.091 508.772, 510.293 509.380 C 510.496 509.987, 511.471 507.910, 512.461 504.764 C 513.451 501.617, 514.647 499.282, 515.119 499.573 C 515.591 499.865, 515.709 499.406, 515.382 498.552 C 515.054 497.698, 514.641 497, 514.465 497 C 514.288 497, 513.195 499.537, 512.034 502.638 M 290.160 511.750 C 290.580 528.194, 290.952 528.973, 301.316 535.093 C 305.267 537.426, 309.608 540.047, 310.961 540.918 C 313.050 542.260, 313.281 542.273, 312.488 541 C 311.974 540.175, 311.541 538.864, 311.526 538.086 C 311.512 537.308, 310.825 536.448, 310 536.173 C 308.667 535.730, 308.667 535.880, 310 537.525 C 311.366 539.209, 311.337 539.313, 309.668 538.687 C 308.661 538.309, 307.622 538, 307.359 538 C 307.097 538, 307.206 537.438, 307.601 536.750 C 307.997 536.063, 307.966 535.820, 307.534 536.210 C 306.449 537.189, 300.794 534.142, 301.519 532.969 C 301.841 532.449, 301.465 532.268, 300.683 532.568 C 299.882 532.875, 297.625 531.569, 295.511 529.575 C 292.601 526.831, 291.868 525.473, 292.241 523.519 C 292.506 522.133, 292.433 521, 292.078 521 C 291.220 521, 291.440 516.715, 292.377 515.200 C 292.784 514.540, 292.754 514.001, 292.309 514.001 C 291.864 514.002, 291.605 510.402, 291.733 506.001 C 291.885 500.798, 291.589 498, 290.887 498 C 290.150 498, 289.920 502.360, 290.160 511.750 M 550.512 513.210 C 550.103 514.470, 549.679 515.725, 549.570 516 C 549.461 516.275, 548.850 518.275, 548.213 520.444 C 546.294 526.977, 547.554 525.522, 549.944 518.444 C 551.171 514.813, 551.968 511.634, 551.714 511.381 C 551.461 511.128, 550.920 511.951, 550.512 513.210 M 680.179 513.084 C 679.495 514.181, 678.567 514.851, 678.119 514.573 C 677.670 514.296, 676.383 514.927, 675.258 515.974 C 674.133 517.022, 672.868 517.569, 672.446 517.190 C 672.024 516.810, 672.007 517.070, 672.409 517.766 C 672.976 518.752, 673.801 518.641, 676.136 517.266 C 679.485 515.293, 682.559 512.225, 681.873 511.539 C 681.626 511.293, 680.864 511.988, 680.179 513.084 M 350.032 517.682 C 350.004 518.711, 352.878 521.161, 356.681 523.352 C 357.330 523.726, 358.187 523.506, 358.585 522.862 C 359.037 522.131, 358.876 521.959, 358.155 522.405 C 357.520 522.797, 357 522.672, 357 522.126 C 357 521.581, 355.989 520.814, 354.754 520.422 C 353.518 520.030, 351.958 518.987, 351.286 518.104 C 350.570 517.164, 350.050 516.989, 350.032 517.682 M 669 520 C 669 520.550, 668.325 521, 667.500 521 C 666.675 521, 666 521.477, 666 522.059 C 666 522.641, 665.663 522.914, 665.250 522.664 C 664.837 522.414, 663.920 522.838, 663.211 523.605 C 661.376 525.589, 662.956 525.324, 666.750 523.011 C 669.529 521.317, 671.117 519, 669.500 519 C 669.225 519, 669 519.450, 669 520 M 729.038 528.455 C 728.374 529.255, 725.843 531.074, 723.415 532.497 C 717.910 535.723, 717.540 536.949, 722.997 533.881 C 726.640 531.834, 732.119 527, 730.797 527 C 730.493 527, 729.702 527.655, 729.038 528.455 M 641 537.226 C 641 537.716, 640.550 537.840, 640 537.500 C 639.450 537.160, 639 537.359, 639 537.941 C 639 538.523, 638.325 539, 637.500 539 C 636.675 539, 636 539.477, 636 540.059 C 636 540.641, 635.550 540.840, 635 540.500 C 634.450 540.160, 634 540.325, 634 540.868 C 634 541.410, 631.525 543.269, 628.500 545 C 623.243 548.008, 620.562 550.373, 625.250 547.868 C 629.692 545.494, 644 536.917, 644 536.628 C 644 536.466, 643.325 536.333, 642.500 536.333 C 641.675 536.333, 641 536.735, 641 537.226 M 382.651 538.468 C 382.305 539.368, 382.385 539.880, 382.828 539.606 C 383.967 538.903, 392.166 544.500, 391.286 545.381 C 390.887 545.779, 391.289 545.826, 392.179 545.485 C 393.069 545.143, 394.095 545.344, 394.458 545.932 C 395.408 547.469, 397.033 547.250, 396.426 545.667 C 396.144 544.933, 395.362 544.333, 394.687 544.333 C 393.394 544.333, 384.933 539.116, 383.889 537.676 C 383.553 537.212, 382.996 537.568, 382.651 538.468 M 712.624 538.200 C 713.288 539.276, 709.108 541.185, 707.825 540.392 C 707.148 539.973, 706.966 540.136, 707.373 540.795 C 708.053 541.894, 704.249 544.641, 702.676 544.188 C 702.222 544.057, 702.151 544.436, 702.518 545.030 C 702.979 545.776, 703.851 545.680, 705.343 544.720 C 706.529 543.956, 709.638 542.089, 712.250 540.570 C 714.862 539.052, 717 537.675, 717 537.511 C 717 537.346, 715.918 537.276, 714.596 537.356 C 713.274 537.435, 712.386 537.815, 712.624 538.200 M 314 542.376 C 314 543.335, 353.120 566.214, 353.725 565.609 C 354.103 565.230, 353.425 564.662, 352.218 564.347 C 351.010 564.031, 350.312 563.304, 350.666 562.732 C 351.069 562.080, 350.814 561.997, 349.985 562.510 C 349.050 563.087, 348.831 562.884, 349.239 561.820 C 349.673 560.689, 349.256 560.420, 347.567 560.743 C 346.327 560.979, 344.603 560.460, 343.729 559.586 C 342.857 558.714, 341.687 558, 341.130 558 C 340.574 558, 339.796 557.479, 339.403 556.842 C 338.913 556.049, 339.366 555.862, 340.843 556.249 C 342.028 556.559, 343.296 556.292, 343.659 555.656 C 344.023 555.020, 343.955 554.831, 343.509 555.234 C 343.063 555.638, 342.057 555.188, 341.275 554.234 C 340.492 553.281, 340.107 553.015, 340.420 553.645 C 341.055 554.924, 338.328 556.321, 336.910 555.444 C 336.409 555.135, 336 554.276, 336 553.535 C 336 552.754, 335.264 552.369, 334.250 552.619 C 332.137 553.139, 325.668 549.346, 326.467 548.054 C 326.778 547.550, 326.506 546.813, 325.862 546.415 C 325.131 545.963, 324.959 546.124, 325.405 546.845 C 326.602 548.783, 324.625 548.148, 319.661 545 C 315.070 542.089, 314 541.592, 314 542.376 M 540 544.107 C 540 544.716, 539.332 544.957, 538.515 544.644 C 537.267 544.165, 537.227 544.398, 538.265 546.098 C 539.310 547.811, 539.202 548.343, 537.559 549.561 C 535.990 550.724, 535.922 551, 537.202 551 C 538.073 551, 539.099 550.212, 539.482 549.250 C 540.508 546.673, 541.117 543, 540.520 543 C 540.234 543, 540 543.498, 540 544.107 M 494.491 553.713 C 492.969 558.546, 491.099 563.737, 490.336 565.250 C 489.573 566.763, 489.320 568, 489.773 568 C 490.227 568, 491.170 566.418, 491.869 564.484 C 492.569 562.551, 493.554 561.224, 494.059 561.536 C 494.564 561.849, 494.714 561.418, 494.393 560.581 C 494.071 559.743, 494.774 556.067, 495.955 552.413 C 497.135 548.758, 497.912 545.578, 497.680 545.347 C 497.448 545.115, 496.013 548.880, 494.491 553.713 M 694 550.589 C 681.651 558.107, 680 559.177, 680 559.658 C 680 560.229, 680.437 559.984, 691.500 553.193 C 700.160 547.876, 702.909 545.987, 701.950 546.011 C 701.702 546.017, 698.125 548.077, 694 550.589 M 398.638 548.500 C 398.885 549.142, 399.632 549.667, 400.299 549.667 C 400.966 549.667, 403.534 550.914, 406.006 552.439 C 410.365 555.129, 410.425 555.138, 408 552.735 C 406.625 551.372, 405.163 550.451, 404.750 550.688 C 404.337 550.924, 404 550.641, 404 550.059 C 404 549.477, 403.325 549, 402.500 549 C 401.675 549, 401 548.625, 401 548.167 C 401 547.708, 400.368 547.333, 399.595 547.333 C 398.823 547.333, 398.392 547.858, 398.638 548.500 M 615.090 553.018 C 613.214 554.064, 611.189 555.464, 610.590 556.127 C 609.990 556.791, 611.222 556.354, 613.327 555.156 C 615.431 553.957, 617.494 553.187, 617.910 553.444 C 618.326 553.702, 618.667 553.257, 618.667 552.456 C 618.667 551.655, 618.629 551.026, 618.583 551.057 C 618.538 551.089, 616.965 551.971, 615.090 553.018 M 606.769 559.080 C 605.560 561.186, 605.333 562.670, 605.974 564.265 C 606.827 566.385, 606.876 566.355, 606.937 563.684 C 606.971 562.136, 607.486 559.960, 608.081 558.849 C 609.809 555.620, 608.636 555.826, 606.769 559.080 M 677.048 560.949 C 676.249 561.455, 675.124 561.601, 674.548 561.274 C 673.971 560.947, 673.841 561.055, 674.257 561.514 C 674.674 561.973, 673.324 563.358, 671.257 564.592 C 660.366 571.097, 658.696 571.930, 657.736 571.337 C 657.145 570.971, 656.987 571.170, 657.373 571.795 C 658.120 573.003, 654.655 575.321, 653.631 574.298 C 653.284 573.951, 653 574.147, 653 574.735 C 653 575.322, 651.376 576.761, 649.390 577.932 C 646.385 579.706, 645.505 579.848, 644.140 578.781 C 642.660 577.625, 642.641 577.679, 643.946 579.339 C 645.227 580.968, 645.206 581.139, 643.762 580.839 C 642.865 580.653, 642.214 580.871, 642.316 581.324 C 642.566 582.443, 634.848 587.024, 633.802 586.378 C 633.343 586.094, 633.269 585.373, 633.638 584.776 C 634.042 584.123, 633.843 583.979, 633.138 584.415 C 632.494 584.813, 632.209 585.530, 632.505 586.009 C 632.801 586.487, 631.796 588.094, 630.272 589.579 L 627.500 592.279 631.500 589.999 C 635.238 587.869, 636.976 586.807, 646 581.141 C 647.925 579.932, 655.350 575.390, 662.500 571.048 C 675.143 563.370, 680.023 560.120, 679 560.060 C 678.725 560.044, 677.846 560.444, 677.048 560.949 M 356.527 568.321 C 362.568 572.365, 366 574.056, 366 572.988 C 366 572.342, 365.105 571.579, 364.011 571.293 C 362.917 571.007, 362.316 570.297, 362.675 569.716 C 363.063 569.089, 362.737 568.887, 361.872 569.219 C 361.071 569.526, 359.562 569.153, 358.517 568.389 C 357.472 567.625, 356.154 567, 355.586 567 C 355.019 567, 355.443 567.594, 356.527 568.321 M 417.064 580.147 C 416.983 586.895, 417.213 592.120, 417.576 591.758 C 418.360 590.973, 418.519 569.186, 417.746 568.413 C 417.452 568.118, 417.145 573.399, 417.064 580.147 M 374.931 579.442 C 381.228 583.710, 384 585.276, 384 584.566 C 384 583.919, 373.165 576.974, 371.079 576.284 C 370.210 575.996, 371.944 577.418, 374.931 579.442 M 385.577 584.875 C 385.117 585.619, 399.888 595, 401.519 595 C 401.829 595, 402.996 595.850, 404.111 596.889 C 407.267 599.829, 412.006 600.386, 414.983 598.166 C 416.367 597.133, 417.567 595.539, 417.648 594.624 C 417.772 593.235, 417.717 593.220, 417.315 594.534 C 416.943 595.747, 416.518 595.845, 415.457 594.964 C 414.356 594.050, 414.157 594.220, 414.464 595.814 C 414.719 597.139, 414.204 597.975, 412.924 598.310 C 410.246 599.010, 406.888 597.991, 407.675 596.716 C 408.085 596.054, 407.694 595.904, 406.626 596.313 C 405.572 596.718, 404.708 596.402, 404.355 595.483 C 404.042 594.667, 403.047 593.990, 402.143 593.977 C 399.133 593.936, 390.250 587.633, 390.547 585.750 C 390.744 584.501, 390.149 584, 388.471 584 C 387.177 584, 385.875 584.394, 385.577 584.875 M 480.342 594.502 C 479.155 597.526, 478.480 599.992, 478.842 599.983 C 479.681 599.961, 483.953 588.999, 483.120 589.002 C 482.779 589.003, 481.529 591.478, 480.342 594.502 M 605.387 593.250 C 605.771 595.545, 608.057 599, 609.190 599 C 609.821 599, 609.588 598.202, 608.655 597.171 C 607.745 596.165, 607 594.590, 607 593.671 C 607 592.752, 606.590 592, 606.088 592 C 605.587 592, 605.271 592.563, 605.387 593.250 M 521.374 595.687 C 521.740 596.340, 521.086 599.633, 519.920 603.003 C 518.753 606.374, 517.984 609.317, 518.210 609.544 C 518.437 609.770, 519.621 606.964, 520.842 603.308 C 522.532 598.247, 522.780 596.403, 521.884 595.581 C 521.029 594.796, 520.889 594.826, 521.374 595.687 M 473.764 613.500 C 472.846 615.975, 472.472 618, 472.931 618 C 473.783 618, 474.870 615.292, 475.640 611.250 C 476.312 607.719, 475.581 608.597, 473.764 613.500 M 468.466 629.500 C 468.036 631.150, 466.872 634.413, 465.878 636.750 C 464.884 639.087, 464.505 641, 465.036 641 C 465.566 641, 466 640.325, 466 639.500 C 466 638.675, 466.450 638, 467 638 C 467.550 638, 467.924 637.663, 467.832 637.250 C 467.442 635.514, 469.288 629.060, 470.041 629.525 C 470.492 629.804, 471.187 629.506, 471.585 628.862 C 472.017 628.164, 471.877 627.958, 471.240 628.352 C 470.652 628.715, 469.963 628.447, 469.709 627.756 C 469.455 627.065, 468.895 627.850, 468.466 629.500 M 463.469 643.500 C 463.211 644.325, 462.707 645.788, 462.349 646.750 C 461.514 648.994, 461.234 649.942, 460.502 653 C 459.981 655.175, 460.106 655.111, 461.463 652.500 C 462.669 650.179, 462.927 650.009, 462.605 651.749 C 462.375 652.986, 462.562 654.229, 463.020 654.512 C 463.478 654.795, 463.702 653.410, 463.518 651.435 C 463.335 649.460, 463.562 646.529, 464.022 644.922 C 464.862 641.994, 464.350 640.679, 463.469 643.500 M 504.405 644.329 C 505.080 646.412, 504.118 651.189, 503.143 650.591 C 502.789 650.374, 502.452 651.502, 502.394 653.098 C 502.335 654.694, 502.406 656, 502.552 656 C 503.147 656, 506.948 643.615, 506.493 643.160 C 506.222 642.889, 505.993 643.304, 505.985 644.083 C 505.972 645.255, 505.783 645.241, 504.890 644 C 503.993 642.752, 503.911 642.807, 504.405 644.329 M 458.191 659.250 C 457.296 662.608, 458.482 667, 460.283 667 C 460.812 667, 460.681 666.321, 459.992 665.490 C 459.216 664.555, 458.943 662.463, 459.274 659.990 C 459.921 655.168, 459.378 654.796, 458.191 659.250 M 497.306 664.328 C 497.413 664.875, 496.375 665.655, 495 666.062 L 492.500 666.801 495.050 666.900 C 497.409 666.993, 500 665.457, 500 663.967 C 500 663.618, 499.350 663.333, 498.556 663.333 C 497.761 663.333, 497.199 663.781, 497.306 664.328" stroke="none" fill="#7c54dc" fill-rule="evenodd"/><path d="M 572.750 356.737 C 575.638 356.939, 580.362 356.939, 583.250 356.737 C 586.138 356.535, 583.775 356.370, 578 356.370 C 572.225 356.370, 569.862 356.535, 572.750 356.737 M 562.547 360.372 C 561.811 361.542, 560.887 363.572, 560.495 364.882 C 559.944 366.720, 559.581 366.948, 558.906 365.882 C 558.356 365.014, 558.025 364.935, 558.015 365.668 C 558.007 366.311, 557.733 367.661, 557.406 368.668 C 556.924 370.153, 557.008 370.222, 557.850 369.031 C 558.638 367.917, 558.841 368.436, 558.694 371.180 C 558.587 373.170, 558.189 374.608, 557.808 374.376 C 557.428 374.144, 556.333 376.439, 555.376 379.477 C 554.418 382.515, 553.113 385, 552.476 385 C 551.838 385, 550.763 386.847, 550.087 389.104 C 549.411 391.361, 548.622 393.949, 548.334 394.854 C 547.884 396.272, 547.961 396.292, 548.890 395 C 550.628 392.585, 550.209 394.359, 546.495 405.155 C 543.159 414.850, 541.044 419.380, 542.365 414 C 542.858 411.993, 542.710 412.092, 541.613 414.500 C 539.343 419.485, 538.649 422.335, 539.893 421.566 C 540.502 421.190, 541 421.359, 541 421.941 C 541 422.523, 540.325 423, 539.500 423 C 538.675 423, 538 423.477, 538 424.059 C 538 424.641, 538.498 424.810, 539.107 424.434 C 540.277 423.711, 539.546 427.107, 537.909 430 C 537.155 431.333, 537.050 431.333, 536.967 430 C 536.915 429.172, 536.444 429.573, 535.915 430.895 C 535.388 432.213, 535.192 433.525, 535.479 433.812 C 535.765 434.099, 536 433.808, 536 433.167 C 536 432.525, 536.416 432, 536.923 432 C 537.431 432, 537.160 433.376, 536.322 435.057 C 535.483 436.738, 535.025 438.989, 535.305 440.058 C 535.585 441.128, 535.453 441.780, 535.013 441.508 C 534.573 441.236, 533.909 442.225, 533.538 443.705 C 533.063 445.598, 532.624 446.010, 532.060 445.097 C 531.521 444.225, 530.723 445.366, 529.631 448.568 C 528.737 451.192, 528.185 453.518, 528.403 453.737 C 528.622 453.955, 529.340 452.499, 530 450.500 C 530.660 448.501, 531.378 447.045, 531.597 447.263 C 531.815 447.482, 531.263 449.808, 530.369 452.432 C 529.475 455.055, 528.439 456.710, 528.066 456.107 C 527.694 455.505, 526.376 458.160, 525.137 462.008 C 523.898 465.855, 523.204 469.522, 523.596 470.156 C 524.038 470.870, 523.869 471.037, 523.155 470.595 C 522.003 469.884, 521.520 471.617, 521.840 475.308 C 521.926 476.303, 521.613 476.879, 521.143 476.588 C 520.673 476.298, 520.484 477.284, 520.723 478.780 C 521.062 480.910, 520.926 481.175, 520.094 480 C 519.466 479.115, 519.024 478.979, 519.015 479.668 C 519.007 480.311, 518.733 481.661, 518.406 482.668 C 517.911 484.192, 517.993 484.248, 518.890 483 C 520.162 481.233, 520.224 482.652, 519 485.500 C 518.421 486.847, 518.113 487.010, 518.055 486 C 517.979 484.667, 517.862 484.667, 517 486 C 515.734 487.958, 515.734 489.282, 517 488.500 C 517.550 488.160, 518 488.359, 518 488.941 C 518 489.523, 517.396 490, 516.658 490 C 515.920 490, 514.763 491.847, 514.087 494.104 C 513.411 496.361, 512.633 498.949, 512.360 499.854 C 512.086 500.759, 512.500 500.435, 513.279 499.133 C 514.498 497.097, 514.786 496.999, 515.337 498.435 C 515.689 499.353, 515.591 499.865, 515.119 499.573 C 514.647 499.282, 513.470 501.555, 512.504 504.626 C 511.452 507.972, 510.451 509.729, 510.006 509.010 C 509.524 508.229, 509.045 508.684, 508.637 510.312 C 508.291 511.688, 507.739 513.644, 507.410 514.657 C 506.900 516.228, 506.987 516.278, 508 515 C 509.014 513.720, 509.101 513.769, 508.594 515.332 C 508.267 516.339, 507.993 517.689, 507.985 518.332 C 507.975 519.098, 507.679 519.042, 507.125 518.169 C 506.567 517.288, 504.569 521.858, 501.225 531.669 C 495.001 549.923, 494.595 551.265, 496.440 547.500 C 498.525 543.244, 498.335 545.046, 495.904 552.570 C 494.751 556.138, 494.071 559.743, 494.393 560.581 C 494.714 561.418, 494.584 561.861, 494.105 561.565 C 493.625 561.268, 492.644 562.482, 491.925 564.263 C 491.206 566.043, 490.029 567.860, 489.309 568.300 C 487.637 569.321, 487.583 571.329, 489.250 570.485 C 489.938 570.137, 489.712 570.497, 488.750 571.286 C 486.952 572.760, 486.283 574.561, 487.907 573.558 C 488.406 573.249, 488.327 574.584, 487.731 576.524 C 486.963 579.028, 486.391 579.681, 485.759 578.775 C 485.195 577.966, 485.115 578.369, 485.542 579.875 C 485.931 581.249, 485.823 582.009, 485.288 581.678 C 484.340 581.092, 479.593 592.926, 480.437 593.770 C 480.693 594.026, 481.198 593.058, 481.560 591.618 C 481.921 590.178, 482.579 589, 483.022 589 C 484.031 589, 479.912 599.142, 478.351 600.500 C 477.719 601.050, 476.902 602.625, 476.535 604 C 475.996 606.023, 476.090 606.214, 477.029 605 C 478.013 603.728, 478.098 603.778, 477.594 605.332 C 477.267 606.339, 477 607.378, 477 607.641 C 477 607.903, 476.603 607.873, 476.117 607.573 C 475.632 607.272, 475.344 608.415, 475.477 610.111 C 475.752 613.603, 474.047 617.980, 472.408 617.992 C 471.042 618.002, 468.851 625.047, 468.363 631 C 467.822 637.595, 467.739 638, 466.917 638 C 466.504 638, 465.908 637.438, 465.593 636.750 C 465.277 636.063, 465.280 636.546, 465.600 637.823 C 465.993 639.392, 465.584 640.634, 464.341 641.648 C 463.328 642.473, 463.034 642.881, 463.686 642.555 C 464.555 642.120, 464.646 642.747, 464.028 644.902 C 463.564 646.520, 463.338 649.499, 463.526 651.523 C 463.714 653.546, 463.574 654.907, 463.214 654.548 C 462.854 654.188, 462.547 653.023, 462.530 651.960 C 462.514 650.896, 462.050 650.132, 461.500 650.263 C 460.950 650.393, 460.625 651.625, 460.779 653 C 460.998 654.967, 460.841 655.180, 460.044 654 C 458.850 652.232, 458.616 653.678, 458.915 661 C 459.052 664.361, 458.836 665.120, 458.064 664 C 456.755 662.100, 456.695 663.980, 458 666 C 458.704 667.090, 458.974 667.142, 458.985 666.191 C 458.993 665.471, 459.457 665.165, 460.016 665.510 C 460.575 665.856, 460.782 666.544, 460.475 667.040 C 459.535 668.561, 464.410 669.192, 472.647 668.615 C 476.966 668.312, 481.962 667.978, 483.750 667.871 C 485.538 667.765, 487 667.301, 487 666.839 C 487 666.378, 488.152 666, 489.559 666 C 491.010 666, 491.851 666.433, 491.500 667 C 491.132 667.596, 492.219 667.960, 494.191 667.900 C 497.261 667.808, 497.320 667.747, 495 667.053 L 492.500 666.305 495 665.879 C 496.375 665.644, 497.401 664.943, 497.281 664.319 C 497.161 663.696, 497.836 663.305, 498.781 663.451 C 500.507 663.718, 501.969 662.364, 501.969 660.500 C 501.969 659.950, 501.484 660.175, 500.890 661 C 499.993 662.248, 499.911 662.192, 500.406 660.668 C 500.733 659.661, 501.007 658.311, 501.015 657.668 C 501.024 656.998, 501.444 657.139, 502 658 C 502.556 658.861, 502.976 659.002, 502.985 658.332 C 502.993 657.689, 503.267 656.339, 503.594 655.332 C 504.031 653.986, 503.935 653.854, 503.234 654.834 C 502.548 655.791, 502.310 655.325, 502.389 653.182 C 502.450 651.540, 502.789 650.374, 503.143 650.591 C 504.118 651.189, 505.080 646.412, 504.405 644.329 C 503.911 642.807, 503.993 642.752, 504.890 644 C 505.783 645.241, 505.972 645.255, 505.985 644.083 C 505.993 643.304, 506.238 642.904, 506.528 643.195 C 506.818 643.485, 506.581 644.972, 506 646.500 C 505.419 648.028, 505.135 649.469, 505.369 649.702 C 505.709 650.042, 509.496 639.523, 511.741 632 C 512.139 630.667, 512.069 630.667, 511.110 632 C 509.838 633.767, 509.776 632.348, 511 629.500 C 511.599 628.107, 511.902 627.955, 512 629 C 512.097 630.038, 512.398 629.884, 512.975 628.500 C 513.434 627.400, 513.591 625.375, 513.324 624 C 512.941 622.027, 513.063 621.816, 513.904 623 C 514.533 623.886, 514.976 624.022, 514.985 623.332 C 514.993 622.689, 515.267 621.339, 515.594 620.332 C 516.089 618.808, 516.007 618.752, 515.110 620 C 513.629 622.058, 513.732 621.144, 515.594 615.677 C 516.471 613.104, 517.554 611.224, 518 611.500 C 518.843 612.021, 522.320 602.987, 521.566 602.233 C 521.331 601.998, 520.585 603.652, 519.909 605.909 C 519.233 608.166, 518.481 609.815, 518.239 609.572 C 517.997 609.330, 518.753 606.374, 519.920 603.003 C 521.086 599.633, 521.737 596.383, 521.366 595.783 C 520.961 595.127, 521.154 594.977, 521.849 595.407 C 522.495 595.806, 522.780 597.311, 522.494 598.811 C 522.211 600.290, 523.330 597.708, 524.981 593.074 C 526.631 588.439, 527.760 584.427, 527.490 584.157 C 527.221 583.887, 527 584.267, 527 585 C 527 585.733, 526.764 586.098, 526.476 585.810 C 525.542 584.875, 527.177 581.992, 528.262 582.662 C 528.931 583.075, 529.109 582.525, 528.751 581.155 C 528.440 579.968, 528.552 579.223, 528.999 579.499 C 529.858 580.030, 533.314 570.981, 532.546 570.212 C 532.299 569.966, 531.796 570.963, 531.429 572.429 C 531.061 573.894, 530.567 574.900, 530.331 574.665 C 529.443 573.776, 531.271 569, 532.500 569 C 533.206 569, 534.055 567.917, 534.387 566.593 C 534.720 565.269, 535.261 563.356, 535.590 562.343 C 536.093 560.794, 536.009 560.740, 535.064 562 C 534.182 563.176, 534.082 562.852, 534.599 560.500 C 535.390 556.902, 537.087 554.679, 536.427 558.106 C 536.173 559.423, 536.870 558.066, 537.976 555.090 C 539.775 550.250, 539.837 549.379, 538.562 546.823 C 537.778 545.252, 537.606 544.257, 538.180 544.611 C 538.754 544.966, 539.666 544.636, 540.206 543.878 C 540.967 542.811, 541.062 542.895, 540.626 544.250 C 540.316 545.212, 540.427 546, 540.873 546 C 541.319 546, 542.205 544.260, 542.842 542.134 C 544.174 537.689, 544.267 535.553, 543 538.500 C 542.446 539.788, 542.132 539.966, 542.115 539 C 542.102 538.175, 542.740 536.150, 543.535 534.500 C 544.463 532.574, 544.781 532.306, 544.423 533.750 C 544.116 534.987, 544.079 536, 544.341 536 C 545.078 536, 549.050 523.717, 548.493 523.160 C 548.222 522.889, 548 523.267, 548 524 C 548 524.733, 547.787 525.121, 547.527 524.860 C 547.143 524.476, 547.746 521.799, 549.524 516 C 549.609 515.725, 550.172 514.375, 550.775 513 C 552.521 509.025, 552.172 512.530, 550.375 517.021 C 549.481 519.255, 548.999 521.333, 549.305 521.638 C 549.610 521.943, 550.798 519.156, 551.944 515.444 C 553.091 511.733, 553.797 508.464, 553.514 508.181 C 553.232 507.898, 553 508.267, 553 509 C 553 509.733, 552.764 510.098, 552.476 509.810 C 551.542 508.875, 553.177 505.992, 554.262 506.662 C 554.931 507.075, 555.109 506.525, 554.751 505.155 C 554.389 503.772, 554.569 503.234, 555.251 503.655 C 555.933 504.076, 556.112 503.538, 555.751 502.155 C 555.405 500.831, 555.579 500.240, 556.200 500.624 C 556.843 501.021, 556.953 500.427, 556.500 499 C 556.052 497.587, 556.159 496.980, 556.788 497.369 C 557.339 497.710, 558.063 497.279, 558.395 496.412 C 559.303 494.046, 559.096 493.305, 558 495 C 557.467 495.825, 557.024 496.006, 557.015 495.403 C 557.007 494.800, 557.924 493.240, 559.054 491.937 C 560.440 490.339, 560.915 488.799, 560.514 487.201 C 560.173 485.841, 560.318 485.079, 560.855 485.410 C 561.370 485.728, 562.063 485.279, 562.395 484.412 C 563.263 482.150, 563.113 481.274, 562.124 482.834 C 561.563 483.719, 561.316 483.164, 561.389 481.182 C 561.450 479.540, 561.837 478.404, 562.250 478.657 C 562.663 478.911, 563 478.615, 563 478 C 563 477.385, 563.498 477.190, 564.107 477.566 C 564.840 478.019, 565.002 477.580, 564.584 476.266 C 563.836 473.908, 564.838 470.782, 566.093 471.558 C 566.579 471.858, 566.716 471.422, 566.396 470.589 C 565.628 468.589, 569.018 458.412, 569.950 459.919 C 570.364 460.588, 571.182 459.336, 571.902 456.932 C 572.585 454.655, 573.378 452.051, 573.666 451.146 C 574.116 449.728, 574.039 449.708, 573.110 451 C 572.458 451.906, 572.025 452.034, 572.015 451.321 C 572.007 450.673, 572.599 449.544, 573.330 448.812 C 574.062 448.081, 574.454 446.861, 574.201 446.102 C 573.943 445.328, 574.196 445.003, 574.777 445.362 C 575.426 445.763, 575.602 445.196, 575.249 443.845 C 574.828 442.235, 575.019 441.894, 576 442.500 C 576.981 443.106, 577.172 442.765, 576.751 441.155 C 576.440 439.968, 576.524 439.206, 576.937 439.461 C 577.350 439.716, 578.195 438.273, 578.814 436.253 C 579.680 433.433, 579.658 432.402, 578.721 431.806 C 577.578 431.080, 578.465 430.583, 580.325 430.907 C 580.779 430.986, 580.864 430.148, 580.514 429.045 C 580.164 427.943, 580.377 426.244, 580.987 425.270 C 581.928 423.767, 582.003 423.878, 581.482 426 C 581.017 427.896, 581.117 428.139, 581.893 427.008 C 582.456 426.188, 582.645 424.433, 582.313 423.109 C 581.895 421.446, 582.061 420.920, 582.851 421.408 C 583.686 421.924, 583.732 421.425, 583.022 419.557 C 582.457 418.073, 582.430 417, 582.957 417 C 583.457 417, 584.153 416.093, 584.505 414.985 C 584.857 413.875, 585.631 413.272, 586.230 413.642 C 586.937 414.079, 587.118 413.561, 586.751 412.155 C 586.440 410.968, 586.514 410.200, 586.914 410.447 C 587.725 410.948, 591.502 401.169, 590.778 400.445 C 590.526 400.193, 589.735 401.903, 589.020 404.244 C 588.304 406.585, 587.519 407.935, 587.274 407.244 C 587.029 406.553, 586.348 406.285, 585.760 406.648 C 585.159 407.020, 584.980 406.841, 585.352 406.240 C 585.715 405.652, 585.447 404.943, 584.756 404.664 C 583.857 404.302, 583.839 404.135, 584.691 404.079 C 585.346 404.036, 586.201 404.516, 586.590 405.146 C 586.996 405.803, 588.271 403.777, 589.579 400.396 C 590.833 397.153, 591.919 395.175, 591.993 396 C 592.075 396.918, 592.479 396.622, 593.035 395.240 C 593.592 393.853, 593.565 391.922, 592.966 390.240 C 592.051 387.675, 592.084 387.624, 593.494 389.441 C 594.322 390.509, 595 390.883, 595 390.273 C 595 389.663, 595.267 388.339, 595.594 387.332 C 596.101 385.769, 596.014 385.720, 595 387 C 593.987 388.278, 593.900 388.228, 594.410 386.657 C 594.739 385.644, 595.291 383.688, 595.637 382.312 C 596.119 380.389, 596.486 380.121, 597.219 381.155 C 597.906 382.123, 598.035 381.869, 597.680 380.249 C 597.409 379.010, 597.547 378.220, 597.988 378.493 C 598.430 378.765, 599.063 378.279, 599.395 377.412 C 600.241 375.209, 600.154 374.787, 599 375.500 C 597.646 376.337, 597.731 375.712, 599.608 371.022 C 600.492 368.812, 600.947 366.305, 600.619 365.450 C 600.277 364.559, 600.444 364.157, 601.011 364.507 C 601.555 364.843, 602 364.390, 602 363.500 C 602 362.610, 601.550 362.160, 601 362.500 C 600.450 362.840, 600 362.679, 600 362.142 C 600 361.606, 600.563 360.940, 601.250 360.662 C 601.975 360.370, 601.740 360.125, 600.691 360.079 C 599.690 360.035, 599.173 359.529, 599.533 358.946 C 599.982 358.221, 594.536 357.948, 582.035 358.069 C 564.706 358.236, 563.826 358.340, 562.547 360.372 M 408.805 417.768 C 410.506 418.335, 408.121 422.735, 405.782 423.347 C 403.266 424.005, 400.824 423.093, 401.626 421.795 C 401.965 421.248, 401.274 421.318, 400.093 421.950 C 398.911 422.583, 398.189 423.498, 398.490 423.983 C 398.790 424.469, 397.226 425.945, 395.015 427.263 C 392.803 428.582, 391.319 429.986, 391.717 430.383 C 392.114 430.781, 391.668 430.810, 390.725 430.448 C 389.783 430.086, 389.303 429.318, 389.660 428.741 C 390.042 428.123, 389.828 427.988, 389.138 428.415 C 388.494 428.813, 388.200 429.514, 388.484 429.974 C 388.768 430.434, 387.008 431.978, 384.572 433.405 C 379.605 436.316, 377.620 436.815, 380.559 434.414 C 381.626 433.542, 380.700 433.839, 378.500 435.074 C 374.256 437.457, 371.069 439.979, 374.569 438.184 C 376.682 437.101, 379.453 437.120, 380.559 438.226 C 380.899 438.566, 380.004 438.715, 378.570 438.557 C 377.020 438.387, 374.134 439.432, 371.447 441.136 C 366.550 444.241, 365.501 444.616, 366.578 442.874 C 367.085 442.054, 366.763 442.033, 365.395 442.799 C 364.361 443.377, 363.512 444.626, 363.508 445.573 C 363.503 446.601, 362.568 447.439, 361.189 447.651 C 359.634 447.890, 359.112 447.628, 359.594 446.849 C 360.041 446.125, 359.871 445.962, 359.138 446.415 C 358.494 446.813, 358.212 447.535, 358.512 448.019 C 358.811 448.503, 358.173 449.372, 357.094 449.950 C 354.190 451.504, 353.338 451.224, 355.559 449.445 C 357.413 447.960, 357.396 447.940, 355.185 449.015 C 353.473 449.847, 353.144 450.468, 353.920 451.403 C 354.668 452.304, 354.615 452.680, 353.734 452.714 C 353.055 452.740, 351.639 453.117, 350.586 453.551 C 349.235 454.108, 348.885 453.995, 349.396 453.168 C 349.794 452.524, 348.518 452.942, 346.560 454.097 C 342.234 456.649, 341.833 457.655, 346 455.500 C 347.650 454.647, 349 454.121, 349 454.332 C 349 454.800, 338.470 461.270, 335 462.935 L 332.500 464.134 335 461.984 L 337.500 459.833 334.310 461.597 C 332.556 462.567, 331.206 463.785, 331.310 464.305 C 331.415 464.825, 330.875 465.477, 330.111 465.755 C 329.155 466.102, 328.971 465.829, 329.521 464.880 C 329.993 464.065, 329.948 463.841, 329.410 464.333 C 328.910 464.792, 328.500 465.654, 328.500 466.250 C 328.500 466.846, 327.875 467.542, 327.111 467.796 C 326.212 468.096, 325.990 467.826, 326.481 467.030 C 327.072 466.074, 326.769 466.053, 325.121 466.935 C 322.781 468.188, 322.228 469.233, 324.333 468.426 C 325.099 468.132, 325.667 468.589, 325.667 469.500 C 325.667 470.372, 325.131 470.881, 324.476 470.629 C 323.822 470.378, 321.984 471.031, 320.393 472.080 C 317.120 474.237, 315.538 474.556, 316.595 472.845 C 317.051 472.108, 316.868 471.963, 316.088 472.446 C 315.416 472.861, 315.115 473.448, 315.418 473.751 C 316.063 474.396, 312.963 476.929, 311.500 476.953 C 310.950 476.962, 311.175 476.492, 312 475.909 C 313.333 474.966, 313.333 474.898, 312 475.299 C 311.175 475.547, 310.609 476.246, 310.743 476.853 C 310.980 477.930, 305.831 481.147, 304.280 480.892 C 302.359 480.575, 301.840 481.102, 302.862 482.333 C 303.682 483.322, 303.649 483.679, 302.734 483.714 C 302.055 483.740, 300.639 484.117, 299.586 484.551 C 298.135 485.149, 297.870 485.019, 298.490 484.015 C 299.039 483.128, 298.923 482.930, 298.138 483.415 C 297.494 483.813, 297.274 484.634, 297.648 485.239 C 298.076 485.932, 297.751 486.119, 296.770 485.742 C 295.312 485.183, 291 488.641, 291 490.370 C 291 490.778, 292.169 489.849, 293.598 488.306 L 296.195 485.500 294.098 488.385 C 292.944 489.972, 291.993 491.997, 291.985 492.885 C 291.971 494.293, 291.845 494.308, 291 493 C 289.701 490.991, 289.729 492.626, 291.035 495.066 C 291.809 496.511, 291.745 497.004, 290.785 497.015 C 289.791 497.027, 289.777 497.207, 290.724 497.808 C 291.549 498.333, 291.874 501.091, 291.724 506.294 C 291.601 510.534, 291.864 514.002, 292.309 514.001 C 292.754 514.001, 292.784 514.540, 292.377 515.200 C 291.504 516.611, 291.195 520.999, 291.967 521.003 C 292.260 521.005, 292.533 522.557, 292.573 524.453 C 292.613 526.348, 292.231 527.643, 291.723 527.329 C 291.216 527.015, 291.298 527.688, 291.906 528.824 C 292.513 529.959, 293.571 531.225, 294.255 531.636 C 295.069 532.125, 295.018 531.789, 294.107 530.668 C 291.888 527.932, 293.230 527.952, 296.500 530.704 C 298.150 532.092, 298.712 532.966, 297.750 532.645 C 295.332 531.840, 295.554 532.691, 298.121 534.065 C 299.301 534.696, 299.969 534.758, 299.626 534.205 C 299.288 533.657, 299.653 532.963, 300.437 532.662 C 301.431 532.281, 301.750 532.703, 301.490 534.054 C 301.250 535.298, 301.901 536.371, 303.308 537.051 C 305.473 538.097, 305.475 538.089, 303.500 536.421 L 301.500 534.731 303.500 535.485 C 304.600 535.899, 306.055 536.260, 306.734 536.286 C 307.615 536.320, 307.668 536.696, 306.920 537.597 C 306.147 538.528, 306.447 539.169, 308.056 540.030 C 309.543 540.826, 310.024 540.848, 309.562 540.100 C 309.188 539.495, 309.414 539, 310.063 539 C 310.895 539, 310.839 538.508, 309.872 537.337 C 308.696 535.912, 308.714 535.746, 310 536.173 C 310.825 536.448, 311.512 537.308, 311.526 538.086 C 311.541 538.864, 311.948 540.132, 312.431 540.905 C 313.033 541.867, 312.946 542.084, 312.155 541.595 C 311.520 541.203, 311 541.118, 311 541.406 C 311 541.694, 311.954 542.440, 313.121 543.065 C 314.769 543.947, 315.072 543.926, 314.481 542.970 C 313.986 542.169, 314.205 541.916, 315.111 542.245 C 315.875 542.523, 316.392 543.243, 316.260 543.845 C 316.128 544.447, 317.028 545.429, 318.260 546.025 C 320.413 547.068, 320.425 547.050, 318.559 545.555 C 315.834 543.372, 317.327 543.619, 321.226 545.996 C 324.982 548.286, 326.434 548.549, 325.399 546.750 C 324.981 546.024, 325.061 545.849, 325.590 546.333 C 326.090 546.792, 326.507 547.467, 326.515 547.833 C 326.524 548.200, 326.941 549.148, 327.442 549.941 C 327.980 550.791, 326.847 550.451, 324.677 549.109 C 320.509 546.533, 319.604 546.855, 323.619 549.486 C 326.147 551.142, 329.013 551.944, 333.750 552.321 C 334.988 552.419, 336 553.036, 336 553.691 C 336 554.346, 336.409 555.135, 336.910 555.444 C 338.328 556.321, 341.055 554.924, 340.420 553.645 C 340.107 553.015, 340.492 553.281, 341.275 554.234 C 342.057 555.188, 342.991 555.751, 343.349 555.484 C 343.707 555.218, 343.772 555.303, 343.493 555.674 C 342.686 556.745, 337.690 556.773, 335.500 555.719 C 332.421 554.235, 334.944 556.364, 339 558.671 C 340.925 559.766, 344.130 560.625, 346.122 560.581 C 348.854 560.520, 349.611 560.848, 349.203 561.914 C 348.816 562.923, 349.067 563.083, 350.080 562.472 C 351.273 561.753, 351.290 561.875, 350.185 563.238 C 349.061 564.626, 349.206 565.038, 351.185 566.086 C 352.458 566.760, 354.625 567.964, 356 568.761 C 358.340 570.118, 358.376 570.109, 356.559 568.605 C 354.353 566.781, 355.170 566.485, 358.094 568.050 C 359.173 568.628, 359.806 569.505, 359.500 570 C 359.194 570.495, 359.911 571.417, 361.093 572.050 C 362.745 572.934, 363.071 572.923, 362.502 572.004 C 362.014 571.213, 362.369 570.925, 363.549 571.154 C 364.531 571.344, 365.542 572.125, 365.797 572.889 C 366.078 573.732, 365.815 574.004, 365.130 573.580 C 364.508 573.196, 364 573.118, 364 573.406 C 364 573.694, 364.954 574.440, 366.121 575.065 C 367.831 575.980, 368.104 575.938, 367.534 574.850 C 367.145 574.107, 367.653 574.461, 368.663 575.635 C 370.534 577.810, 379 583.444, 379 582.514 C 379 582.233, 376.863 580.612, 374.250 578.911 C 371.637 577.210, 370.210 576.041, 371.079 576.312 C 373.154 576.961, 384 583.909, 384 584.590 C 384 584.880, 383.550 584.840, 383 584.500 C 382.450 584.160, 382 584.118, 382 584.406 C 382 584.694, 382.906 585.415, 384.014 586.008 C 385.562 586.836, 385.967 586.786, 385.764 585.793 C 385.612 585.047, 386.629 584.369, 388.170 584.191 C 390.272 583.948, 390.780 584.268, 390.556 585.691 C 390.251 587.632, 399.065 593.935, 402.143 593.977 C 403.047 593.990, 404.045 594.675, 404.362 595.500 C 404.678 596.325, 404.501 597, 403.969 597 C 403.436 597, 403 596.550, 403 596 C 403 595.450, 402.438 594.984, 401.750 594.965 C 399.610 594.904, 387.769 587.244, 389.120 586.793 C 390.034 586.489, 389.942 586.192, 388.798 585.753 C 387.739 585.346, 387.271 585.638, 387.414 586.615 C 387.533 587.427, 390.301 589.689, 393.565 591.642 C 396.829 593.596, 400.978 596.096, 402.784 597.200 C 404.774 598.415, 405.956 598.721, 405.784 597.978 C 405.628 597.302, 406.125 596.523, 406.889 596.245 C 407.740 595.936, 408.008 596.178, 407.580 596.870 C 407.163 597.545, 407.611 598.028, 408.691 598.070 C 410.317 598.133, 410.298 598.237, 408.500 599.091 C 406.659 599.965, 406.679 600, 408.750 599.521 C 409.988 599.234, 412.012 598.736, 413.250 598.413 C 415.040 597.946, 415.193 598.046, 414 598.898 C 413.175 599.487, 412.984 599.976, 413.576 599.985 C 416.091 600.020, 418.999 595.351, 418.900 591.436 C 418.813 587.991, 418.701 587.812, 418 590 C 417.493 591.582, 417.189 588.462, 417.170 581.500 C 417.151 574.506, 417.454 571.228, 418 572.500 C 418.701 574.130, 418.872 574.188, 418.930 572.809 C 418.968 571.879, 418.550 570.840, 418 570.500 C 417.450 570.160, 417.007 569.346, 417.015 568.691 C 417.025 567.975, 417.418 568.099, 418 569 C 418.724 570.120, 418.955 569.612, 418.914 567 C 418.869 564.140, 418.702 563.866, 418 565.500 C 417.171 567.428, 417.138 567.421, 417.070 565.309 C 417.032 564.104, 417.450 562.840, 418 562.500 C 419.509 561.568, 419.213 560.213, 417.023 558.023 C 415.935 556.935, 414.406 556.291, 413.624 556.591 C 412.842 556.891, 411.862 556.586, 411.447 555.914 C 410.932 555.080, 411.108 554.949, 412 555.500 C 412.864 556.034, 413.068 555.918, 412.599 555.160 C 412.208 554.528, 410.901 553.485, 409.694 552.842 C 407.646 551.750, 407.600 551.794, 409 553.497 C 410.410 555.211, 410.368 555.239, 408.315 553.961 C 407.113 553.212, 406.395 552.170, 406.719 551.645 C 407.044 551.120, 406.790 551.012, 406.156 551.403 C 404.709 552.298, 400.748 549.633, 401.756 548.443 C 402.165 547.961, 401.765 548.125, 400.867 548.808 C 399.531 549.825, 399.123 549.764, 398.628 548.474 C 398.279 547.564, 398.441 547.155, 399.011 547.507 C 399.555 547.843, 400 547.882, 400 547.594 C 400 547.306, 399.046 546.560, 397.879 545.935 C 396.389 545.138, 395.961 545.127, 396.438 545.900 C 396.812 546.505, 396.668 547, 396.118 547 C 395.568 547, 394.821 546.519, 394.458 545.932 C 394.095 545.344, 393.145 545.114, 392.347 545.420 C 391.549 545.727, 391.120 545.615, 391.394 545.172 C 391.667 544.729, 390.558 543.579, 388.928 542.617 C 387.298 541.654, 386.221 540.451, 386.534 539.944 C 386.850 539.434, 386.339 539.316, 385.388 539.681 C 384.090 540.179, 383.881 539.994, 384.528 538.920 C 385.262 537.702, 385.140 537.698, 383.669 538.891 C 382.153 540.122, 382.034 540.074, 382.647 538.477 C 383.043 537.447, 382.940 536.919, 382.407 537.248 C 381.330 537.914, 377.283 535.958, 376.816 534.546 C 376.642 534.021, 375.697 533.533, 374.715 533.461 C 373.732 533.388, 372.382 532.739, 371.715 532.018 C 370.743 530.969, 370.801 530.866, 372 531.500 C 373.181 532.125, 373.249 532.021, 372.317 531.013 C 371.666 530.309, 370.091 529.663, 368.817 529.576 C 367.542 529.490, 366.607 528.891, 366.738 528.245 C 366.869 527.600, 366.352 527.311, 365.589 527.604 C 364.826 527.897, 363.862 527.586, 363.447 526.914 C 362.963 526.132, 363.107 525.948, 363.845 526.405 C 364.480 526.797, 365 526.876, 365 526.579 C 365 525.641, 357.549 522.260, 356.394 522.674 C 355.785 522.892, 353.760 521.613, 351.894 519.831 C 350.027 518.049, 347.989 516.691, 347.364 516.814 C 346.739 516.936, 345.955 516.324, 345.621 515.454 C 345.287 514.585, 344.541 514.165, 343.963 514.523 C 341.999 515.737, 340.063 512.971, 340.562 509.663 C 340.943 507.129, 340.849 506.898, 340.089 508.500 C 339.169 510.440, 339.138 510.434, 339.070 508.309 C 339.032 507.104, 339.457 505.835, 340.016 505.490 C 340.575 505.144, 340.714 504.330, 340.324 503.681 C 339.855 502.898, 340.146 502.929, 341.191 503.776 C 342.494 504.831, 342.875 504.769, 343.392 503.422 C 343.762 502.456, 344.646 502.034, 345.560 502.385 C 346.450 502.726, 346.843 502.555, 346.489 501.981 C 346.150 501.434, 346.574 500.717, 347.431 500.388 C 348.288 500.059, 348.712 499.343, 348.374 498.795 C 348.018 498.220, 348.626 498.265, 349.819 498.903 C 351.340 499.717, 352.066 499.703, 352.594 498.848 C 353.038 498.130, 352.871 497.962, 352.155 498.405 C 351.520 498.797, 351 498.882, 351 498.594 C 351 498.306, 351.954 497.560, 353.121 496.935 C 354.778 496.048, 355.073 496.072, 354.473 497.044 C 354.050 497.728, 355.096 497.466, 356.798 496.460 C 358.499 495.455, 359.696 494.317, 359.457 493.930 C 358.947 493.106, 360.745 491.580, 363.302 490.667 C 364.467 490.251, 364.866 490.408, 364.432 491.111 C 364.062 491.709, 365.583 491.149, 367.812 489.866 C 370.040 488.583, 371.483 487.298, 371.017 487.011 C 369.775 486.243, 372.206 483.524, 374.285 483.355 C 375.800 483.232, 375.875 483.460, 374.785 484.855 C 373.645 486.315, 373.693 486.349, 375.211 485.160 C 376.152 484.423, 377.203 482.936, 377.545 481.857 C 378.073 480.194, 378.413 480.093, 379.776 481.197 C 380.699 481.945, 381.092 482.012, 380.698 481.355 C 380.320 480.725, 380.707 479.943, 381.558 479.616 C 382.577 479.225, 382.886 479.445, 382.465 480.261 C 382.114 480.943, 382.704 480.423, 383.776 479.106 C 384.888 477.741, 386.225 477.021, 386.888 477.431 C 387.567 477.851, 387.936 477.616, 387.775 476.865 C 387.624 476.159, 388.419 475.516, 389.542 475.437 C 392.396 475.236, 396.166 473.077, 395.512 472.019 C 395.212 471.535, 395.425 470.856, 395.984 470.510 C 396.543 470.165, 397 470.434, 397 471.108 C 397 472.656, 398.491 471.246, 398.524 469.667 C 398.537 469.025, 399.320 468.562, 400.263 468.637 C 401.207 468.712, 401.761 468.422, 401.495 467.992 C 401.229 467.562, 401.707 466.943, 402.558 466.616 C 403.508 466.252, 403.849 466.436, 403.442 467.094 C 403.078 467.683, 404.194 467.434, 405.923 466.540 C 407.651 465.646, 408.813 464.507, 408.505 464.008 C 407.846 462.942, 411.356 460.854, 413.164 461.236 C 413.849 461.381, 414.430 460.825, 414.455 460 C 414.480 459.175, 415.175 458.480, 416 458.455 C 417.591 458.406, 417.602 458.304, 416.530 453.250 C 416.109 451.264, 416.236 450, 416.857 450 C 417.416 450, 418.055 451.462, 418.277 453.250 C 418.498 455.038, 418.693 453.350, 418.708 449.500 C 418.730 444.050, 418.574 443.275, 418 446 C 417.042 450.550, 416.843 449.409, 416.655 438.303 C 416.485 428.229, 417.670 426.894, 418.256 436.500 C 418.490 440.341, 418.690 438.653, 418.811 431.809 C 418.986 421.894, 418.176 418.288, 416.415 421.138 C 415.963 421.869, 416.124 422.041, 416.845 421.595 C 417.543 421.164, 418 421.547, 418 422.563 C 418 423.939, 417.729 424.020, 416.511 423.009 C 415.692 422.329, 415.271 421.371, 415.574 420.880 C 415.878 420.388, 415.386 419.701, 414.480 419.354 C 413.252 418.883, 413.149 418.526, 414.072 417.955 C 414.768 417.525, 413.644 417.236, 411.513 417.297 C 409.423 417.356, 408.205 417.568, 408.805 417.768 M 610 418.102 C 611.204 418.962, 611.053 419.075, 609.237 418.677 C 605.309 417.815, 604.011 422.861, 606.453 429.500 C 607.042 431.100, 606.973 431.200, 606.110 430 C 605.283 428.851, 605.027 429.714, 605.015 433.691 C 605.007 436.546, 605.450 439.160, 606 439.500 C 606.550 439.840, 606.993 440.654, 606.985 441.309 C 606.975 442.025, 606.582 441.901, 606 441 C 605.335 439.970, 605.048 442.165, 605.086 448 C 605.118 453.047, 605.452 455.702, 605.908 454.536 C 606.516 452.982, 606.818 453.461, 607.357 456.833 C 607.740 459.225, 608.469 460.828, 609.019 460.488 C 609.559 460.155, 610 460.385, 610 461 C 610 461.615, 610.448 461.841, 610.996 461.503 C 611.543 461.164, 613.192 462.150, 614.659 463.694 C 616.127 465.237, 617 465.934, 616.600 465.242 C 616.023 464.246, 616.404 464.227, 618.436 465.153 C 619.846 465.795, 621 466.912, 621 467.635 C 621 469.180, 626.648 472.336, 627.960 471.525 C 628.456 471.218, 629.187 471.494, 629.585 472.138 C 630.037 472.869, 629.876 473.041, 629.155 472.595 C 628.520 472.203, 628 472.118, 628 472.406 C 628 472.694, 628.954 473.440, 630.121 474.065 C 631.287 474.689, 631.995 474.801, 631.694 474.314 C 631.393 473.827, 631.989 473.429, 633.018 473.429 C 634.541 473.429, 634.667 473.704, 633.695 474.906 C 632.970 475.803, 632.932 476.125, 633.600 475.726 C 634.766 475.028, 645.500 481.309, 645.500 482.689 C 645.500 483.135, 646.058 483.438, 646.739 483.363 C 647.421 483.288, 647.761 483.578, 647.495 484.008 C 646.810 485.116, 649.301 485.901, 652.418 485.558 C 653.874 485.399, 654.845 485.488, 654.575 485.758 C 654.306 486.028, 654.863 486.980, 655.814 487.874 C 656.764 488.768, 657.105 489.163, 656.571 488.750 C 656.037 488.337, 655.154 488, 654.609 488 C 654.064 488, 654.472 488.625, 655.517 489.389 C 656.562 490.153, 658.071 490.526, 658.872 490.219 C 659.803 489.862, 660.070 490.078, 659.612 490.819 C 659.130 491.599, 659.456 491.762, 660.612 491.319 C 661.692 490.904, 662.086 491.052, 661.675 491.717 C 661.303 492.318, 661.772 492.715, 662.761 492.637 C 663.717 492.562, 664.415 492.981, 664.310 493.570 C 664.206 494.158, 665.510 495.461, 667.208 496.464 C 668.906 497.467, 669.978 497.773, 669.589 497.144 C 668.480 495.349, 670.598 495.807, 672.128 497.692 C 673.311 499.151, 673.293 499.266, 672 498.532 C 671.106 498.024, 670.837 498.047, 671.333 498.590 C 671.792 499.090, 672.579 499.556, 673.083 499.625 C 673.587 499.694, 674.225 499.863, 674.500 500 C 674.775 500.137, 675.563 500.306, 676.250 500.375 C 676.938 500.444, 677.500 501.025, 677.500 501.667 C 677.500 502.308, 677.910 503.208, 678.410 503.667 C 678.939 504.151, 679.019 503.976, 678.601 503.250 C 677.435 501.223, 679.110 501.821, 681.133 504.153 C 682.160 505.337, 682.948 507.250, 682.884 508.403 C 682.773 510.417, 682.749 510.421, 682.287 508.500 C 681.553 505.448, 680.180 504.491, 680.740 507.422 C 681.020 508.883, 680.508 511.186, 679.557 512.748 L 677.881 515.500 679.941 513.139 C 681.073 511.841, 682 511.255, 682 511.838 C 682 513.436, 675.240 518.267, 674.042 517.526 C 673.467 517.171, 671.691 518.310, 670.094 520.058 C 668.266 522.060, 666.729 522.950, 665.941 522.464 C 665.075 521.928, 664.943 522.098, 665.510 523.015 C 666.109 523.985, 665.868 524.164, 664.612 523.681 C 663.534 523.268, 663.138 523.415, 663.548 524.078 C 663.908 524.660, 663.581 524.992, 662.821 524.817 C 662.062 524.643, 661.274 524.950, 661.070 525.500 C 660.598 526.770, 657.794 528.926, 656.559 528.968 C 656.041 528.986, 656.491 528.303, 657.559 527.452 C 659.273 526.084, 659.121 526.087, 656.250 527.477 C 654.462 528.343, 653 529.291, 653 529.585 C 653 529.878, 653.563 529.780, 654.250 529.367 C 655.202 528.795, 655.193 528.995, 654.213 530.205 C 653.506 531.079, 652.094 531.576, 651.076 531.310 C 650.058 531.044, 648.927 531.310, 648.561 531.901 C 648.140 532.582, 648.558 532.763, 649.698 532.394 C 651.222 531.901, 651.269 531.985, 650 532.939 C 649.175 533.559, 647.600 534.576, 646.500 535.197 C 644.646 536.245, 644.610 536.193, 646 534.489 C 647.452 532.709, 647.412 532.708, 644.750 534.440 C 642.151 536.132, 640.695 537.925, 643.155 536.405 C 643.893 535.948, 644.037 536.132, 643.553 536.914 C 643.138 537.586, 642.145 537.886, 641.347 537.580 C 640.549 537.273, 640.157 537.445, 640.476 537.961 C 641.207 539.144, 637.308 541.308, 635.955 540.472 C 635.402 540.131, 635.074 540.336, 635.225 540.928 C 635.376 541.520, 632.688 543.605, 629.250 545.560 C 625.813 547.516, 623 548.898, 623 548.631 C 623 548.365, 625.475 546.731, 628.500 545 C 631.525 543.269, 634 541.618, 634 541.332 C 634 540.752, 627.638 544.383, 618.500 550.177 C 615.200 552.269, 612.853 553.985, 613.285 553.990 C 613.717 553.996, 615.105 553.322, 616.369 552.494 C 618.365 551.186, 618.667 551.181, 618.667 552.450 C 618.667 553.254, 618.326 553.702, 617.910 553.444 C 617.494 553.187, 615.431 553.978, 613.327 555.202 C 610.384 556.913, 609.817 557.031, 610.872 555.713 C 611.627 554.771, 611.958 554, 611.608 554 C 610.290 554, 607.003 560.617, 606.888 563.500 C 606.820 565.189, 606.568 565.736, 606.311 564.750 C 606.059 563.788, 605.436 563, 604.927 563 C 604.400 563, 604 569.265, 604 577.500 C 604 589.722, 604.236 592, 605.500 592 C 606.348 592, 607 592.895, 607 594.059 C 607 595.302, 606.564 595.849, 605.900 595.438 C 605.127 594.961, 605.138 595.389, 605.935 596.879 C 607.307 599.441, 608.194 599.686, 607.281 597.250 C 606.709 595.722, 606.838 595.673, 608.302 596.863 C 609.224 597.613, 609.761 598.578, 609.495 599.009 C 608.989 599.827, 611.285 601, 613.395 601 C 614.698 601, 627.799 593.454, 629.500 591.724 C 630.175 591.037, 630.012 590.979, 629 591.545 C 627.707 592.268, 627.690 592.150, 628.872 590.692 C 630.380 588.833, 632.527 588.337, 631.438 590.100 C 630.961 590.873, 631.389 590.862, 632.879 590.065 C 635.316 588.760, 635.737 587.780, 633.489 588.642 C 632.391 589.064, 632.066 588.653, 632.297 587.137 C 632.472 585.990, 632.999 584.702, 633.468 584.276 C 633.937 583.849, 634.016 584.031, 633.644 584.681 C 632.429 586.802, 634.573 586.938, 637.845 584.948 C 641.999 582.422, 642.831 582.468, 639.861 585.059 L 637.500 587.119 640.267 585.433 C 642.260 584.219, 642.752 583.407, 642.026 582.532 C 640.719 580.956, 641.736 579.966, 643.848 580.756 C 645.335 581.313, 645.350 581.190, 644 579.527 C 642.587 577.786, 642.627 577.758, 644.685 579.039 C 645.887 579.788, 646.639 580.776, 646.355 581.234 C 646.072 581.693, 647.338 581.157, 649.170 580.043 C 651.001 578.929, 652.556 577.564, 652.625 577.009 C 652.694 576.454, 652.806 575.646, 652.875 575.213 C 652.944 574.780, 653.953 574.354, 655.118 574.266 C 657.163 574.112, 657.172 574.159, 655.368 575.608 C 653.604 577.027, 653.622 577.051, 655.692 576.051 C 657.099 575.371, 657.750 574.298, 657.510 573.054 C 657.250 571.703, 657.569 571.281, 658.563 571.662 C 659.347 571.963, 659.697 572.682, 659.340 573.259 C 658.958 573.877, 659.172 574.012, 659.862 573.585 C 660.506 573.187, 660.788 572.465, 660.488 571.981 C 659.842 570.936, 663.590 568.770, 666.621 568.437 C 667.799 568.308, 669.940 567.430, 671.381 566.486 C 675.396 563.855, 674.491 563.533, 670.323 566.109 C 668.301 567.359, 666.979 567.843, 667.386 567.184 C 668.577 565.257, 673.949 562.853, 675.279 563.651 C 675.992 564.079, 675.890 563.576, 675.033 562.442 C 674.226 561.374, 673.948 560.822, 674.414 561.215 C 674.881 561.608, 676.216 561.422, 677.381 560.801 C 679.321 559.768, 679.379 559.819, 678.065 561.412 C 676.933 562.784, 677.407 562.692, 680.315 560.977 C 684.328 558.609, 685.385 557.217, 681.750 559.087 C 679.923 560.027, 679.728 560.003, 680.715 558.958 C 681.382 558.250, 682.957 557.595, 684.215 557.503 C 685.472 557.410, 686.500 556.805, 686.500 556.158 C 686.500 555.511, 687.850 554.166, 689.500 553.169 C 697.628 548.256, 702 545.857, 702 546.310 C 702 546.585, 699.975 547.997, 697.500 549.447 C 695.025 550.898, 693 552.316, 693 552.599 C 693 552.882, 694.726 552.075, 696.835 550.807 C 700.958 548.327, 706.264 544.543, 704.319 545.470 C 703.670 545.779, 702.813 545.506, 702.415 544.862 C 701.979 544.157, 702.123 543.958, 702.776 544.362 C 703.373 544.731, 704.144 544.575, 704.490 544.016 C 704.835 543.457, 705.568 543, 706.118 543 C 706.668 543, 706.812 543.495, 706.438 544.100 C 705.961 544.873, 706.389 544.862, 707.879 544.065 C 710.219 542.812, 710.772 541.767, 708.667 542.574 C 707.933 542.856, 707.333 542.504, 707.333 541.793 C 707.333 541.082, 708.380 540.435, 709.660 540.356 C 710.975 540.275, 711.720 540.645, 711.373 541.206 C 711.032 541.757, 711.704 541.694, 712.879 541.065 C 715.219 539.812, 715.772 538.767, 713.667 539.574 C 712.933 539.856, 712.333 539.504, 712.333 538.793 C 712.333 538.082, 713.380 537.435, 714.660 537.356 C 715.940 537.277, 716.729 537.630, 716.413 538.140 C 716.098 538.650, 717.338 538.157, 719.170 537.043 C 721.001 535.929, 722.500 534.489, 722.500 533.842 C 722.500 533.196, 723.125 532.458, 723.889 532.204 C 724.815 531.895, 725.014 532.169, 724.485 533.025 C 723.960 533.873, 724.088 534.063, 724.862 533.585 C 725.506 533.187, 725.726 532.366, 725.352 531.761 C 724.918 531.059, 725.258 530.885, 726.289 531.281 C 728.589 532.163, 733.302 526.362, 732.728 523.355 C 732.486 522.093, 732.674 521.298, 733.144 521.589 C 733.615 521.880, 733.971 515.454, 733.937 507.309 C 733.893 497.029, 733.586 493.216, 732.935 494.842 C 732.418 496.131, 732.229 497.562, 732.514 498.023 C 732.799 498.484, 732.513 499.183, 731.878 499.575 C 730.785 500.251, 731.142 495.807, 732.576 490.889 C 732.835 490.004, 732.100 488.204, 730.943 486.889 L 728.840 484.500 730.420 486.973 C 732.794 490.688, 732.321 491.450, 729.519 488.426 C 728.154 486.953, 727.261 485.386, 727.535 484.943 C 727.809 484.500, 727.506 483.813, 726.862 483.415 C 726.131 482.963, 725.959 483.124, 726.405 483.845 C 727.862 486.204, 725.089 484.901, 723.009 482.250 C 721.823 480.738, 721.157 480.096, 721.530 480.824 C 722.295 482.314, 715.809 479.226, 712.500 476.523 C 710.571 474.947, 710.588 474.931, 713 476.067 C 717.350 478.116, 713.788 475.482, 705.530 470.543 C 701.146 467.921, 696.576 465.668, 695.374 465.536 C 692.699 465.242, 678.952 456.887, 679.551 455.918 C 679.787 455.535, 677.173 453.589, 673.740 451.592 C 668.266 448.408, 668.207 449.050, 673.631 452.787 C 677.589 455.514, 673.047 453.026, 662.250 446.554 C 656.063 442.845, 651 439.609, 651 439.363 C 651 439.117, 653.138 440.134, 655.750 441.622 C 658.362 443.111, 660.050 443.865, 659.500 443.298 C 657.608 441.346, 648.632 436.595, 649.504 438.007 C 650.032 438.861, 648.886 438.540, 646.612 437.199 C 644.541 435.977, 642.319 435.279, 641.673 435.649 C 641.028 436.018, 640.843 435.943, 641.262 435.481 C 641.681 435.020, 639.881 433.391, 637.262 431.861 C 634.643 430.331, 632.490 428.499, 632.478 427.790 C 632.465 427.080, 631.633 426.643, 630.627 426.817 C 629.399 427.030, 629.047 426.733, 629.554 425.912 C 630.026 425.149, 629.893 424.948, 629.197 425.378 C 628.586 425.756, 625.591 424.658, 622.543 422.937 C 616.882 419.742, 615.631 418.642, 618.750 419.600 C 619.712 419.896, 619.375 419.448, 618 418.605 C 615.309 416.954, 612.508 416.389, 615 418 C 615.901 418.582, 616.025 418.975, 615.309 418.985 C 614.654 418.993, 613.840 418.550, 613.500 418 C 613.160 417.450, 611.896 417.007, 610.691 417.015 C 608.865 417.028, 608.750 417.209, 610 418.102 M 635.924 429.726 C 637.256 430.702, 640.631 432.748, 643.424 434.274 C 646.216 435.799, 647.409 436.249, 646.076 435.274 C 644.744 434.298, 641.369 432.252, 638.576 430.726 C 635.784 429.201, 634.591 428.751, 635.924 429.726 M 491.714 559.214 C 490.804 562.062, 490.225 564.558, 490.427 564.761 C 490.630 564.964, 491.563 562.821, 492.500 560 C 493.437 557.179, 494.016 554.683, 493.787 554.454 C 493.558 554.224, 492.625 556.367, 491.714 559.214" stroke="none" fill="#7454db" fill-rule="evenodd"/></svg>